<svg width="40" height="40" viewBox="0 0 40 40" fill="none" xmlns="http://www.w3.org/2000/svg">
<rect width="40" height="40" rx="20" fill="black"/>
<path d="M15.2267 27.2497C14.1345 27.1872 14.1551 25.4651 15.2267 25.4053C18.2622 25.4171 26.2687 25.4085 29.4008 25.4109C30.2575 25.4109 30.9904 24.7574 31.1831 23.8219L32.9616 15.1889C33.0634 14.6946 32.9606 14.183 32.6796 13.7854C32.3986 13.3877 31.9779 13.1565 31.5254 13.1565C30.2654 13.1565 19.57 13.1022 14.0919 13.0777L13.2235 9.46591C13.015 8.60278 12.3124 8 11.5147 8H8.73281C8.3281 8 8 8.36779 8 8.82145C8 9.27511 8.3281 9.6429 8.73281 9.6429H11.5147C11.652 9.6429 11.7729 9.74668 11.8086 9.89438L15.1436 23.7646C14.5572 23.7885 14.0111 24.0559 13.5969 24.5269C13.1617 25.022 12.928 25.6773 12.9388 26.3722C12.9604 27.7619 13.9867 28.8926 15.2267 28.8926H16.2953C16.1365 29.2663 16.0473 29.6841 16.0473 30.1248C16.0473 31.7102 17.1979 33 18.6122 33C20.0266 33 21.1772 31.7102 21.1772 30.1248C21.1772 29.684 21.088 29.2663 20.9291 28.8926H25.5564C25.3977 29.2662 25.3086 29.6837 25.3086 30.1244C25.3086 31.7098 26.4592 32.9996 27.8735 32.9996C29.2878 32.9996 30.4385 31.7097 30.4385 30.1244C30.4385 29.6666 30.3421 29.2338 30.1715 28.8492C30.4615 28.7397 30.6706 28.4331 30.6706 28.0712C30.6706 27.6175 30.3425 27.2497 29.9378 27.2497H15.2267ZM19.7115 30.1249C19.7115 30.8044 19.2184 31.3572 18.6122 31.3572C18.006 31.3572 17.5129 30.8044 17.5129 30.1249C17.5129 29.4457 18.0055 28.8932 18.6113 28.8926H18.6131C19.2189 28.8932 19.7115 29.4457 19.7115 30.1249ZM27.8736 31.3567C27.2674 31.3567 26.7742 30.8039 26.7742 30.1244C26.7742 29.4517 27.2578 28.9034 27.8557 28.8926H27.8914C28.4894 28.9034 28.973 29.4517 28.973 30.1244C28.9729 30.8039 28.4797 31.3567 27.8736 31.3567ZM31.5308 14.8054C31.5351 14.8115 31.5345 14.8144 31.5336 14.8191L30.7842 18.4568H28.2466L28.6787 14.7864L31.5195 14.7992C31.5239 14.7993 31.5265 14.7993 31.5308 14.8054ZM23.9757 23.768V20.0997H26.5749L26.143 23.768H23.9757ZM20.3419 23.768L19.9065 20.0997H22.5101V23.768H20.3419ZM16.9683 23.768H16.966C16.7874 23.7679 16.6301 23.6329 16.5836 23.4405L15.7804 20.0997H18.4279L18.8633 23.768H16.9683ZM19.7114 18.4569L19.2707 14.744L22.5101 14.7586V18.4569H19.7114ZM23.9757 18.4569V14.7652L27.2012 14.7798L26.7683 18.4569H23.9757ZM17.7914 14.7372L18.2329 18.4568H15.3853L14.4874 14.7223L17.7914 14.7372ZM29.4008 23.768H27.6213L28.0531 20.0997H30.4457L29.755 23.4522C29.7167 23.6381 29.5711 23.768 29.4008 23.768Z" fill="white"/>
</svg>
