<svg width="60" height="60" viewBox="0 0 60 60" fill="none" xmlns="http://www.w3.org/2000/svg">
<g clip-path="url(#clip0)">
<path d="M45.6159 39.6912C43.6557 37.756 41.2086 37.756 39.2608 39.6912C37.7751 41.1645 36.2893 42.6378 34.8285 44.136C34.429 44.5481 34.0919 44.6355 33.6049 44.3608C32.6435 43.8364 31.6197 43.4119 30.6958 42.8376C26.3883 40.1282 22.7801 36.6448 19.5838 32.7244C17.9981 30.7766 16.5873 28.6916 15.6009 26.3443C15.4012 25.8699 15.4386 25.5577 15.8257 25.1707C17.3114 23.7348 18.7597 22.2616 20.2205 20.7883C22.2557 18.7407 22.2557 16.3435 20.2081 14.2834C19.0469 13.1097 17.8858 11.9611 16.7246 10.7874C15.526 9.58885 14.3399 8.37776 13.1288 7.19164C11.1686 5.28137 8.72146 5.28137 6.77373 7.20413C5.27548 8.67741 3.83965 10.1881 2.31643 11.6365C0.905574 12.9724 0.193904 14.608 0.0440793 16.5183C-0.193144 19.6271 0.568467 22.5612 1.64221 25.4204C3.83965 31.3385 7.18575 36.5948 11.2435 41.4142C16.7246 47.9316 23.267 53.0881 30.9206 56.8088C34.3665 58.4818 37.9374 59.7678 41.8203 59.9801C44.4922 60.1299 46.8145 59.4557 48.6748 57.3706C49.9484 55.9473 51.3842 54.6488 52.7326 53.2879C54.7303 51.2652 54.7428 48.8181 52.7576 46.8204C50.3853 44.4357 48.0006 42.0635 45.6159 39.6912Z" fill="black"/>
<path d="M43.2313 29.7404L47.8384 28.9538C47.1143 24.7212 45.1166 20.8882 42.0827 17.8418C38.8739 14.633 34.8161 12.6104 30.3463 11.9861L29.6971 16.6182C33.1556 17.1051 36.3019 18.6658 38.7865 21.1504C41.1338 23.4977 42.6695 26.4692 43.2313 29.7404Z" fill="black"/>
<path d="M50.4354 9.71367C45.1166 4.39487 38.387 1.03629 30.9581 0L30.3089 4.6321C36.7264 5.53105 42.5446 8.44015 47.1393 13.0223C51.4967 17.3797 54.3558 22.8858 55.3921 28.9412L59.9992 28.1547C58.7882 21.1378 55.4795 14.7703 50.4354 9.71367Z" fill="black"/>
</g>
<defs>
<clipPath id="clip0">
<rect width="60" height="60" fill="white"/>
</clipPath>
</defs>
</svg>
