<svg width="60" height="60" viewBox="0 0 60 60" fill="none" xmlns="http://www.w3.org/2000/svg">
<g clip-path="url(#clip0)">
<path d="M59.6819 43.7997C59.6093 43.6431 59.5415 43.5132 59.4786 43.4092C58.4376 41.5343 56.4483 39.233 53.5119 36.5047L53.4498 36.4422L53.4188 36.4116L53.3874 36.3802H53.3558C52.0231 35.1097 51.1792 34.2555 50.8258 33.8182C50.1791 32.9851 50.0343 32.1418 50.3877 31.2873C50.6374 30.6418 51.5753 29.2784 53.1993 27.1955C54.0535 26.0915 54.73 25.2068 55.2296 24.5402C58.8328 19.7499 60.395 16.6889 59.9158 15.3558L59.7296 15.0443C59.6046 14.8568 59.2818 14.6852 58.7617 14.5287C58.2405 14.3726 57.5742 14.3468 56.7618 14.4508L47.765 14.513C47.6193 14.4613 47.4112 14.4661 47.14 14.5287C46.8692 14.5913 46.7338 14.6227 46.7338 14.6227L46.5772 14.701L46.4529 14.7949C46.3487 14.8571 46.2342 14.9664 46.1091 15.1227C45.9847 15.2784 45.8807 15.4611 45.7975 15.6693C44.818 18.1893 43.7043 20.5323 42.4545 22.6981C41.6838 23.9895 40.9761 25.1088 40.3298 26.0564C39.6843 27.0038 39.1428 27.7017 38.7058 28.1491C38.2681 28.597 37.8731 28.9558 37.5184 29.2268C37.1642 29.4979 36.8939 29.6125 36.7066 29.5706C36.519 29.5287 36.3423 29.4871 36.175 29.4455C35.8836 29.258 35.6492 29.0029 35.4725 28.6801C35.295 28.3574 35.1756 27.9511 35.1131 27.4617C35.0509 26.9719 35.0142 26.5507 35.0037 26.1965C34.9939 25.8427 34.9984 25.3424 35.0195 24.6968C35.0412 24.0509 35.0509 23.6139 35.0509 23.3848C35.0509 22.5932 35.0664 21.7342 35.0973 20.8074C35.1288 19.8807 35.1543 19.1464 35.1757 18.6054C35.1969 18.0639 35.2067 17.491 35.2067 16.887C35.2067 16.283 35.17 15.8094 35.0973 15.4656C35.0256 15.1222 34.9154 14.7889 34.7702 14.4658C34.6241 14.143 34.4103 13.8933 34.1297 13.7161C33.8487 13.539 33.4992 13.3986 33.0833 13.2942C31.9794 13.0444 30.5737 12.9092 28.8656 12.8882C24.9921 12.8467 22.5031 13.0968 21.3993 13.6383C20.962 13.8671 20.5662 14.1797 20.2124 14.5751C19.8374 15.0335 19.7851 15.2836 20.0558 15.3247C21.3056 15.512 22.1903 15.9598 22.711 16.6678L22.8987 17.043C23.0447 17.3137 23.1904 17.793 23.3363 18.4801C23.4819 19.1673 23.5759 19.9274 23.6172 20.7601C23.7212 22.2806 23.7212 23.5823 23.6172 24.6651C23.513 25.7483 23.4145 26.5916 23.3205 27.1956C23.2265 27.7996 23.086 28.289 22.8987 28.6637C22.711 29.0386 22.5862 29.2677 22.5236 29.3509C22.4611 29.434 22.409 29.4864 22.3677 29.507C22.097 29.6107 21.8155 29.6636 21.5241 29.6636C21.2323 29.6636 20.8784 29.5176 20.462 29.2259C20.0456 28.9342 19.6135 28.5335 19.1657 28.0232C18.7178 27.5128 18.2128 26.7995 17.6503 25.8832C17.0882 24.9669 16.505 23.884 15.901 22.6345L15.4013 21.7283C15.0889 21.1453 14.6622 20.2965 14.1207 19.1825C13.5788 18.0681 13.0999 16.9901 12.6836 15.9488C12.5172 15.5114 12.2671 15.1785 11.934 14.9493L11.7776 14.8553C11.6737 14.7722 11.5068 14.6839 11.2779 14.5898C11.0487 14.4958 10.8095 14.4284 10.5593 14.3869L1.99972 14.4491C1.12503 14.4491 0.531551 14.6472 0.219054 15.043L0.0939897 15.2302C0.0315123 15.3345 0 15.501 0 15.7302C0 15.9594 0.0624774 16.2406 0.187542 16.5735C1.43709 19.5103 2.79595 22.3426 4.26411 25.0708C5.73228 27.799 7.00809 29.9967 8.09077 31.6618C9.17368 33.3281 10.2775 34.9007 11.4022 36.379C12.5269 37.8578 13.2714 38.8054 13.6356 39.2218C14.0003 39.6389 14.2868 39.9507 14.495 40.1589L15.2761 40.9085C15.7759 41.4085 16.5099 42.0072 17.4784 42.7047C18.447 43.4027 19.5194 44.0899 20.6961 44.7673C21.873 45.4436 23.2422 45.9955 24.8043 46.4223C26.3662 46.8496 27.8865 47.021 29.3653 46.9383H32.9579C33.6865 46.8754 34.2385 46.6463 34.6137 46.2509L34.738 46.0943C34.8216 45.97 34.8998 45.7769 34.972 45.517C35.0451 45.2567 35.0815 44.9699 35.0815 44.658C35.0601 43.7626 35.1283 42.9556 35.2841 42.2372C35.4398 41.519 35.6173 40.9775 35.8158 40.6128C36.0141 40.2484 36.238 39.941 36.4872 39.6917C36.7368 39.4419 36.9148 39.2906 37.0191 39.2385C37.1229 39.1861 37.2057 39.1505 37.2682 39.1292C37.768 38.9627 38.3562 39.1239 39.0337 39.6138C39.7107 40.1032 40.3457 40.7075 40.9396 41.4258C41.5332 42.1446 42.2463 42.9511 43.0792 43.8465C43.9127 44.7422 44.6414 45.408 45.2659 45.846L45.8905 46.2209C46.3076 46.471 46.8491 46.7001 47.5157 46.9083C48.181 47.1165 48.764 47.1685 49.2646 47.0645L57.2616 46.9397C58.0526 46.9397 58.6681 46.8088 59.1046 46.5489C59.5421 46.2886 59.802 46.0018 59.8858 45.6899C59.9694 45.3776 59.9739 45.0233 59.9016 44.6272C59.8276 44.2321 59.7546 43.9558 59.6819 43.7997Z" fill="black"/>
</g>
<defs>
<clipPath id="clip0">
<rect width="60" height="60" fill="white"/>
</clipPath>
</defs>
</svg>
